<?xml version="1.0" encoding="UTF-8" standalone="no"?>
<!-- Created with Inkscape (http://www.inkscape.org/) -->

<svg
   xmlns:svg="http://www.w3.org/2000/svg"
   xmlns="http://www.w3.org/2000/svg"
   version="1.0"
   width="400"
   height="400"
   id="svg2">
  <defs
     id="defs12">
    <filter
       color-interpolation-filters="sRGB"
       id="filter3599">
      <feGaussianBlur
         id="feGaussianBlur3601"
         stdDeviation="0.37910825" />
    </filter>
  </defs>
  <g
     id="g4"
     style="stroke:#808080">
    <path
       d="M 182.78125,24.9375 153.3125,293.625 c -2.10943,-21.52621 -3.07855,-32.01049 -6.5,-65.3125 -2.9573,-28.78428 -6.08533,-58.11744 -8.75,-81.40625 -1.33233,-11.6444 -2.55189,-21.78187 -3.59375,-29.59375 -1.04186,-7.81188 -1.79362,-13.01269 -2.59375,-16.03125 -0.28094,-1.05988 -0.51391,-2.401752 -2.4375,-3.8125 -0.9618,-0.705374 -2.47026,-1.178698 -3.75,-1.0625 -1.27974,0.116198 -2.21252,0.622642 -2.84375,1.0625 -2.52494,1.759431 -2.81751,3.19061 -3.78125,5.1875 -1.92747,3.99377 -4.06297,10.01273 -6.53125,17.75 -4.93655,15.47454 -11.01478,37.56189 -16.9375,60.21875 -7.804464,29.8553 -13.981068,55.20702 -18.21875,72.75 l -17.21875,-70.625 -2.75,-11.28125 -6.28125,9.75 -11.90625,18.40625 -39.09375,0 0,10 41.78125,0 2.71875,0 1.46875,-2.28125 7.09375,-10.9375 19.34375,79.375 L 82.25,275.75 c 0,0 11.226779,-47.43677 23.03125,-92.59375 5.90224,-22.57849 11.96221,-44.61259 16.78125,-59.71875 0.91212,-2.8592 1.46673,-3.90216 2.28125,-6.21875 0.0958,0.69331 0.12104,0.67362 0.21875,1.40625 1.02751,7.70432 2.23422,17.79728 3.5625,29.40625 2.65656,23.21795 5.76357,52.54886 8.71875,81.3125 5.91036,57.52728 11.25,112.8125 11.25,112.8125 l 9.9375,0.0625 28.90625,-263.4375 23.40625,296.125 9.96875,0.125 L 246.75,120.125 284.53125,320.46875 294.40625,320 308.3125,169 330.25,295.4375 l 9.8125,0.1875 19.15625,-89.28125 1.3125,1.53125 1.5,1.75 2.3125,0 35.6875,0 0,-10 -33.40625,0 -6.375,-7.5 -6.5625,-7.75 -2.125,9.9375 -15.875,74.03125 L 311.71875,130.25 301.8125,130.65625 287.75,283.5625 250.21875,84.5 240.3125,84.9375 216,319.625 192.71875,25.09375 182.78125,24.9375 z"
       id="path6"
       style="font-size:medium;font-style:normal;font-variant:normal;font-weight:normal;font-stretch:normal;text-indent:0;text-align:start;text-decoration:none;line-height:normal;letter-spacing:normal;word-spacing:normal;text-transform:none;direction:ltr;block-progression:tb;writing-mode:lr-tb;text-anchor:start;color:#000000;fill:#000000;fill-opacity:1;stroke:#808080;stroke-width:5;stroke-miterlimit:4;stroke-dasharray:none;marker:none;visibility:visible;display:inline;overflow:visible;enable-background:accumulate;font-family:Bitstream Vera Sans;-inkscape-font-specification:Bitstream Vera Sans" />
  </g>
  <g
     transform="matrix(12.008629,0,0,12.008629,-5502.8326,-2358.5394)"
     id="g3805"
     style="stroke:#ffffff;stroke-width:0.66618764;stroke-miterlimit:4;stroke-dasharray:none">
    <path
       d="m 343.5625,-19.65625 a 3.5233768,3.5233768 0 0 0 -0.0312,0.03125 l -0.0312,0 a 3.5233768,3.5233768 0 0 0 -1.5,0.8125 l -0.65625,0 0,0.8125 a 3.5233768,3.5233768 0 0 0 -0.46875,1.375 3.5233768,3.5233768 0 0 0 0,0.375 l 0,257.5 c -4.33941,-3.24771 -9.75919,-5.63281 -16.125,-7.0625 -3.85453,-0.6893 -13.72932,-1.04175 -17.9375,-0.6875 -14.44542,1.78568 -29.22481,7.70993 -41.9375,17.59375 -14.44554,10.55558 -24.31735,24.64821 -27.5,39.09375 -0.6893,4.6148 -0.66735,12.71382 0.375,16.25 3.16499,12.35916 13.03108,20.06747 27.8125,23.25 4.20818,0.6893 14.87363,0.6893 20.125,0 13.38458,-2.49299 27.12772,-8.4801 39.0625,-17.25 14.09189,-10.5557 23.97372,-24.64821 27.15625,-39.09375 0.16328,-1.09313 0.26252,-2.40123 0.34375,-3.78125 6.8e-4,-0.0116 0.0306,-0.0196 0.0312,-0.0312 a 3.5233768,3.5233768 0 0 0 0.25,-0.96875 l 0,-193.78125 0.125,0.125 c 34.46068,36.26414 50.34085,62.7175 53.1875,87.71875 0.33624,4.20806 0.34555,14.43373 -0.34375,20.78125 -1.78568,16.585 -6.3612,34.56029 -13.0625,50.03125 -0.6893,2.13946 -1.375,3.85483 -1.375,4.96875 0,1.37907 1.02718,4.20681 2.40625,5.25 1.1144,1.4498 4.24533,2.46875 6.03125,2.46875 1.37907,0 4.54233,-1.44309 5.65625,-2.46875 1.02554,-1.04355 2.42101,-4.58924 5.25,-13.09375 9.19417,-27.83024 12.70615,-56.69131 9.1875,-78.15625 -2.13934,-12.71282 -6.71282,-25.35336 -13.75,-39.78125 -5.32198,-10.57336 -9.85755,-18.384538 -22.90625,-39.53125 -17.61041,-28.183769 -24.3425,-41.550272 -29.59375,-57.375 -0.27756,-0.834063 -0.54856,-1.700778 -0.8125,-2.5625 l 0,-29.40625 a 3.5233768,3.5233768 0 0 0 -0.375,-1.125 3.5233768,3.5233768 0 0 0 -1.5,-1.875 3.5233768,3.5233768 0 0 0 -1.875,-0.375 l -4.5,0 a 3.5233768,3.5233768 0 0 0 -0.71875,-0.03125 z"
       transform="matrix(0.08327345,0,0,0.08327345,447.61305,199.91659)"
       id="path2786"
       style="fill:#000000;fill-rule:evenodd;stroke:#ffffff;stroke-width:8;stroke-linecap:butt;stroke-linejoin:round;stroke-miterlimit:4;stroke-dasharray:none" />
  </g>
  <path
     d="m 223.97231,225.2435 0,151.6433 57.76887,0 0,-151.6433 -57.76887,0 z m 93.87442,0 0,151.6433 57.76888,0 0,-151.6433 -57.76888,0 z"
     transform="matrix(1.4475183,0,0,1.4475183,-170.18024,-170.74911)"
     id="rect3614"
     style="color:#000000;fill:#e9e8e9;fill-opacity:1;fill-rule:evenodd;stroke:#030303;stroke-width:7.5;stroke-linecap:square;stroke-linejoin:miter;stroke-miterlimit:4;stroke-opacity:0.83137249;stroke-dasharray:none;stroke-dashoffset:0;marker:none;visibility:visible;display:inline;overflow:visible;filter:url(#filter3599)" />
</svg>
